<svg width="36" height="38" viewBox="0 0 36 38" fill="none" xmlns="http://www.w3.org/2000/svg">
<path d="M28.9526 14.9104C31.1174 14.5697 32.1742 14.7703 33.9048 15.5141C32.8654 16.2091 32.431 16.8748 31.8012 18.3313L31.4506 19.7399L31.0124 22.2553C30.8353 23.3094 30.7285 23.8797 30.5303 24.8712C30.2437 25.8975 30.0575 26.4528 29.6538 27.3866C29.1918 28.4793 28.9013 29.0263 28.339 29.9019C27.8498 30.6943 27.5265 31.1331 26.9366 31.9142C26.3799 32.5339 26.0059 32.8887 25.3151 33.524C24.3909 34.2605 23.8525 34.654 22.817 35.2848C21.8979 35.7368 21.3661 35.9735 20.3628 36.3412C19.4059 36.6847 18.8619 36.8292 17.8648 36.9449C16.7771 37.0073 16.162 37.0284 15.0161 36.9449C14.1049 36.8435 13.5905 36.8143 12.6934 36.5928C11.9317 36.3978 11.4981 36.2361 10.7212 35.8382C11.3122 35.7693 11.6399 35.7109 12.2113 35.5363C13.0855 35.2913 13.5533 35.1232 14.3587 34.7817C15.3092 34.197 15.8446 33.8555 16.8568 32.9707C17.6503 32.1478 18.1009 31.6609 18.9166 30.7068C19.3481 30.0977 19.9684 29.1473 19.9684 29.1473C19.9684 29.1473 20.1426 28.6558 19.9684 28.443C19.8391 28.2852 19.4863 28.2418 19.4863 28.2418C19.4863 28.2418 17.6875 28.4179 16.0679 28.443C15.2848 28.3125 14.8451 28.1988 14.052 27.8896L14.0357 27.8815C13.1774 27.4517 12.6912 27.2082 11.8607 26.2798C10.7799 25.0555 10.1857 24.4241 9.01205 22.7583C10.3731 22.2544 12.8249 21.9031 12.8249 21.9031C12.8249 21.9031 9.90046 20.749 8.17937 19.4884C6.97247 18.7071 5.41837 16.47 5.41837 16.47L9.53795 16.1681L7.65346 14.8098C6.94849 14.3435 6.57112 14.0602 5.90046 13.5521C5.1977 13.0752 4.81056 12.7864 4.14745 12.1938C3.33692 11.4942 2.65878 11.0101 2.26295 9.93005C2.08366 9.44085 2 8.62207 2 8.62207C2 8.62207 5.7593 9.20042 8.17937 9.93005C9.83364 10.4782 10.7527 10.8169 12.3428 11.5902C13.7195 12.2761 14.4975 12.719 15.8926 13.6528C16.9363 14.3042 17.4913 14.7087 18.453 15.4652C19.184 16.1073 19.5475 16.4585 20.1437 17.0736L21.5023 18.5325L22.4226 19.6393C22.8732 20.1355 22.9723 20.3008 23.2738 20.194C23.5752 20.0873 23.7152 19.9695 23.9126 19.6393C24.2339 19.1155 24.8819 18.0374 24.9206 17.9792L25.9286 16.6712C26.9293 15.7434 27.5343 15.2818 28.9526 14.9104Z" stroke="black" stroke-width="2"/>
<mask id="path-2-inside-1_105_92" fill="white">
<ellipse cx="29.5671" cy="17.1243" rx="0.832681" ry="0.905526"/>
</mask>
<path d="M29.3997 17.1243C29.3997 17.1248 29.3999 17.1093 29.4198 17.0877C29.4409 17.0647 29.4923 17.0298 29.5671 17.0298V19.0298C30.6565 19.0298 31.3997 18.0961 31.3997 17.1243H29.3997ZM29.5671 17.0298C29.6418 17.0298 29.6932 17.0647 29.7144 17.0877C29.7342 17.1093 29.7344 17.1248 29.7344 17.1243H27.7344C27.7344 18.0961 28.4776 19.0298 29.5671 19.0298V17.0298ZM29.7344 17.1243C29.7344 17.1238 29.7342 17.1393 29.7144 17.1609C29.6932 17.1838 29.6418 17.2188 29.5671 17.2188V15.2188C28.4776 15.2188 27.7344 16.1525 27.7344 17.1243H29.7344ZM29.5671 17.2188C29.4923 17.2188 29.4409 17.1838 29.4198 17.1609C29.3999 17.1393 29.3997 17.1238 29.3997 17.1243H31.3997C31.3997 16.1525 30.6565 15.2188 29.5671 15.2188V17.2188Z" fill="black" mask="url(#path-2-inside-1_105_92)"/>
<path d="M18.4861 6.18162C20.7407 9.44924 21.4224 14.6835 21.4224 14.6835C21.4224 14.6835 17.9238 11.0341 15.2869 9.09943C14.6644 8.58484 14.3592 8.15062 13.8407 7.28837C12.7338 5.02885 12.274 3.67998 12 1C14.7859 2.45066 16.182 3.63798 18.4861 6.18162Z" stroke="black" stroke-width="2"/>
</svg>
