<svg width="36" height="39" viewBox="0 0 36 39" fill="none" xmlns="http://www.w3.org/2000/svg">
<path d="M28.9526 15.9106C31.1174 15.5699 32.1742 15.7704 33.9048 16.5143C32.8654 17.2092 32.431 17.875 31.8012 19.3314L31.4506 20.74L31.0124 23.2554C30.8353 24.3095 30.7285 24.8798 30.5303 25.8713C30.2437 26.8977 30.0575 27.4529 29.6538 28.3867C29.1918 29.4794 28.9013 30.0264 28.339 30.902C27.8498 31.6944 27.5265 32.1332 26.9366 32.9143C26.3799 33.5341 26.0059 33.8889 25.3151 34.5242C24.3909 35.2606 23.8525 35.6542 22.817 36.2849C21.8979 36.7369 21.3661 36.9736 20.3628 37.3413C19.4059 37.6848 18.8619 37.8293 17.8648 37.945C16.7771 38.0074 16.162 38.0285 15.0161 37.945C14.1049 37.8436 13.5905 37.8144 12.6934 37.5929C11.9317 37.3979 11.4981 37.2362 10.7212 36.8383C11.3122 36.7694 11.6399 36.7111 12.2113 36.5364C13.0855 36.2915 13.5533 36.1233 14.3587 35.7818C15.3092 35.1972 15.8446 34.8557 16.8568 33.9708C17.6503 33.1479 18.1009 32.661 18.9166 31.707C19.3481 31.0978 19.9684 30.1474 19.9684 30.1474C19.9684 30.1474 20.1426 29.6559 19.9684 29.4431C19.8391 29.2853 19.4863 29.2419 19.4863 29.2419C19.4863 29.2419 17.6875 29.418 16.0679 29.4431C15.2848 29.3126 14.8451 29.1989 14.052 28.8898L14.0357 28.8816C13.1774 28.4518 12.6912 28.2084 11.8607 27.2799C10.7799 26.0556 10.1857 25.4242 9.01205 23.7585C10.3731 23.2545 12.8249 22.9032 12.8249 22.9032C12.8249 22.9032 9.90046 21.7491 8.17937 20.4885C6.97247 19.7072 5.41837 17.4701 5.41837 17.4701L9.53795 17.1682L7.65346 15.81C6.94849 15.3436 6.57112 15.0603 5.90046 14.5522C5.1977 14.0753 4.81056 13.7865 4.14745 13.1939C3.33692 12.4943 2.65878 12.0102 2.26295 10.9302C2.08366 10.441 2 9.62219 2 9.62219C2 9.62219 5.7593 10.2005 8.17937 10.9302C9.83364 11.4783 10.7527 11.817 12.3428 12.5903C13.7195 13.2763 14.4975 13.7191 15.8926 14.6529C16.9363 15.3043 17.4913 15.7088 18.453 16.4653C19.184 17.1074 19.5475 17.4586 20.1437 18.0738L21.5023 19.5327L22.4226 20.6394C22.8732 21.1356 22.9723 21.3009 23.2738 21.1941C23.5752 21.0874 23.7152 20.9697 23.9126 20.6394C24.2339 20.1156 24.8819 19.0375 24.9206 18.9793L25.9286 17.6713C26.9293 16.7435 27.5343 16.2819 28.9526 15.9106Z" stroke="white" stroke-width="2"/>
<mask id="path-2-inside-1_311_32" fill="white">
<ellipse cx="29.5671" cy="18.124" rx="0.832681" ry="0.905526"/>
</mask>
<path d="M30.3997 18.124H29.3997C29.3997 18.1245 29.3999 18.109 29.4198 18.0874C29.4409 18.0644 29.4923 18.0295 29.5671 18.0295V19.0295V20.0295C30.6565 20.0295 31.3997 19.0958 31.3997 18.124H30.3997ZM29.5671 19.0295V18.0295C29.6418 18.0295 29.6932 18.0644 29.7144 18.0874C29.7342 18.109 29.7344 18.1245 29.7344 18.124H28.7344H27.7344C27.7344 19.0958 28.4776 20.0295 29.5671 20.0295V19.0295ZM28.7344 18.124H29.7344C29.7344 18.1235 29.7342 18.139 29.7144 18.1605C29.6932 18.1835 29.6418 18.2184 29.5671 18.2184V17.2184V16.2184C28.4776 16.2184 27.7344 17.1522 27.7344 18.124H28.7344ZM29.5671 17.2184V18.2184C29.4923 18.2184 29.4409 18.1835 29.4198 18.1605C29.3999 18.139 29.3997 18.1235 29.3997 18.124H30.3997H31.3997C31.3997 17.1522 30.6565 16.2184 29.5671 16.2184V17.2184Z" fill="white" mask="url(#path-2-inside-1_311_32)"/>
<path d="M18.4861 7.18162C20.7407 10.4492 21.4224 15.6835 21.4224 15.6835C21.4224 15.6835 17.9238 12.0341 15.2869 10.0994C14.6644 9.58484 14.3592 9.15062 13.8407 8.28837C12.7338 6.02885 12.274 4.67998 12 2C14.7859 3.45066 16.182 4.63798 18.4861 7.18162Z" stroke="white" stroke-width="2"/>
</svg>
